Coordinates
version=1
nRows=17
nColumns=36
inDegrees=yes

Units are S.I. units (second, meters, Newtons, ...)
If the header above contains a line with 'inDegrees', this indicates whether rotational values are in degrees (yes) or radians (no).

endheader
time	pelvis_tilt	pelvis_list	pelvis_rotation	pelvis_tx	pelvis_ty	pelvis_tz	hip_flexion_r	hip_adduction_r	hip_rotation_r	knee_angle_r	knee_angle_r_beta	ankle_angle_r	subtalar_angle_r	mtp_angle_r	hip_flexion_l	hip_adduction_l	hip_rotation_l	knee_angle_l	knee_angle_l_beta	ankle_angle_l	subtalar_angle_l	mtp_angle_l	lumbar_extension	lumbar_bending	lumbar_rotation	arm_flex_r	arm_add_r	arm_rot_r	elbow_flex_r	pro_sup_r	arm_flex_l	arm_add_l	arm_rot_l	elbow_flex_l	pro_sup_l
      8.16666670	      1.81030727	     -3.91407873	    -15.25652007	      1.01239054	      0.93393877	     -0.03337091	     45.32053725	     -3.64579855	     -4.65637998	     24.81300423	      0.43306862	    -14.77603529	      9.89691523	     -7.49999987	     15.49302988	      4.56411843	      4.55777232	     41.20130433	      0.71909842	      5.29649887	     -4.51802170	     -7.49999987	    -21.13318308	      2.37044249	      6.61482353	     43.02406187	     -7.43489231	     54.16907028	    129.59877026	     85.72690379	     42.88527265	    -10.06918973	     65.70631208	    138.12756665	     87.45411354
      8.18333330	      1.59016095	     -4.40548635	    -15.35067972	      1.01344757	      0.94232617	     -0.03370518	     44.43315769	     -3.06497959	     -4.91751941	     24.50839480	      0.42775218	    -14.15943027	      9.45262193	     -7.49999987	     14.17533666	      3.82632628	      4.59230956	     38.56749707	      0.67312981	      4.19028885	     -3.93761315	     -7.49999987	    -20.83603850	      3.02515615	      6.92990913	     42.94042948	     -7.57160287	     54.08791853	    129.56711236	     85.94477976	     42.50921574	     -9.62484396	     64.61992996	    137.96252404	     87.71811586
      8.20000000	      1.26795730	     -4.51567129	    -15.16845487	      1.01487230	      0.95064675	     -0.03402143	     43.76255441	     -2.96713011	     -5.13105532	     24.11526776	      0.42089082	    -13.68197807	      9.12277029	     -7.49999987	     12.82867627	      3.35564274	      4.45909380	     35.60802423	      0.62147726	      2.96554109	     -3.03475263	     -7.49999987	    -20.27331810	      3.42035919	      6.82065260	     42.36106992	     -7.79881464	     54.18039110	    129.66163521	     85.98438232	     41.75828142	     -9.40256230	     64.52287572	    137.85356711	     87.77893027
      8.21666670	      1.19012267	     -4.54455470	    -15.02686000	      1.01508243	      0.95416512	     -0.03464760	     43.12859053	     -2.92898702	     -5.12487272	     23.89439057	      0.41703579	    -13.56266219	      8.37867973	     -7.49999987	     11.39073316	      3.06774639	      4.34195328	     32.64123007	      0.56969694	      1.60903870	     -2.55409341	     -7.49999987	    -19.62707906	      3.87991115	      6.84911199	     42.43584854	     -7.99329739	     53.89270096	    129.43308467	     86.03015613	     41.56728385	     -9.21626654	     64.07954030	    137.81353082	     87.86838725
      8.23333330	      0.39247759	     -4.61716629	    -14.82006025	      1.01587213	      0.95673592	     -0.03440373	     43.57478080	     -2.71802024	     -4.86097497	     24.29006684	      0.42394164	    -12.37944393	      8.04440434	     -7.49999987	     10.93189537	      2.55902156	      4.43713120	     30.13969121	      0.52603685	      0.65754832	     -1.99596319	     -7.49999987	    -18.00837827	      4.55811091	      6.47085107	     42.49264141	     -8.08270996	     53.50234211	    129.37963958	     84.59367242	     41.71360862	     -9.09605708	     62.97349221	    137.76738198	     86.40955334
      8.25000000	      0.08165899	     -4.72802762	    -14.68923074	      1.01617927	      0.96040591	     -0.03484061	     43.61208521	     -2.66861206	     -4.73931696	     24.87725040	      0.43418993	    -11.32966411	      7.39388525	     -7.49999987	      9.82786858	      2.26481663	      4.60180665	     27.79555432	      0.48512394	      0.03133758	     -1.81082587	     -7.49999987	    -16.96722372	      5.19001299	      6.44658774	     43.24353624	     -8.44701748	     53.43543676	    129.41054849	     84.66831121	     41.99865023	     -8.61985291	     62.18938211	    137.60112506	     86.50269261
      8.26666670	     -0.36418607	     -4.99169913	    -14.66546320	      1.01673485	      0.96297930	     -0.03440405	     43.76339551	     -2.40108595	     -4.26767272	     25.55989582	      0.44610434	     -9.88503825	      7.22882800	     -7.49999987	      9.21669111	      1.80965398	      4.82880465	     26.08309483	      0.45523588	     -0.27811854	     -1.99282505	     -7.49999987	    -16.04650401	      5.85686467	      6.17998897	     43.99561096	     -8.34448139	     53.40209332	    129.28184149	     83.37670218	     42.25149903	     -8.49630088	     60.57777545	    136.68099630	     85.21848614
      8.28333330	     -0.45206427	     -5.26553409	    -14.39490701	      1.01718168	      0.97153379	     -0.03408794	     43.03096590	     -2.46217265	     -4.64826404	     25.35929454	      0.44260319	     -9.18597840	      7.30157103	     -7.49999987	      8.05547348	      1.48338531	      5.15092480	     24.06861500	      0.42007658	     -0.83962597	     -2.15810407	     -7.49999987	    -15.76870932	      6.46238067	      5.98288855	     44.30967960	     -8.41604178	     53.73993053	    128.87364430	     83.56837456	     42.11912006	     -8.51841603	     59.60045820	    136.35166807	     85.59203946
      8.30000000	     -0.89920593	     -5.40996959	    -14.05791604	      1.01790847	      0.97339462	     -0.03450320	     42.65461694	     -2.54630316	     -4.67727749	     24.84085489	      0.43355471	     -8.38674538	      7.16730415	     -7.49999987	      6.90827900	      1.15055786	      5.24833682	     21.35202858	      0.37266320	     -1.21912133	     -1.71475642	     -7.49999987	    -15.05251663	      6.91822086	      5.73185134	     44.22984035	     -8.41737168	     53.77995555	    128.74390044	     83.61316703	     42.04411830	     -8.26894976	     59.23257898	    136.31464435	     85.70008979
      8.31666670	     -0.63743613	     -5.44216039	    -13.66337220	      1.01831732	      0.98187275	     -0.03423661	     41.16515149	     -2.79140541	     -5.45693359	     23.41325123	      0.40863832	     -8.16826377	      7.62063258	     -7.49999987	      5.08973852	      0.92614225	      5.00683406	     18.23778755	      0.31830944	     -2.52592351	     -1.17546005	     -7.49999987	    -15.33583222	      7.01459878	      5.24587978	     44.22755429	     -8.12304337	     53.93103091	    128.19561693	     83.66606512	     41.95273715	     -8.43195320	     58.96975805	    135.95079146	     85.90876450
      8.33333330	     -0.62662714	     -5.45430423	    -13.46055651	      1.01861558	      0.98435313	     -0.03446237	     40.31481524	     -2.90861533	     -6.25531738	     22.59180349	      0.39430135	     -7.97693698	      7.83407490	     -7.49999987	      3.91209703	      0.71553943	      4.89884948	     15.86246077	      0.27685217	     -3.71491250	     -0.75453720	     -7.49999987	    -15.41500492	      7.19317262	      4.83848737	     44.30864893	     -7.98436296	     54.46783938	    127.67301630	     82.98727910	     42.11987055	     -8.69676056	     58.76908357	    136.23048849	     85.36157847
      8.35000000	     -0.92906544	     -5.48946626	    -13.61111049	      1.02327858	      0.98734922	     -0.03044022	     39.80381721	     -2.70257278	     -7.00233408	     22.11092037	      0.38590836	     -7.45354609	      7.78055343	     -7.49999987	      3.11994471	      0.29387639	      4.56778506	     13.90070119	      0.24261300	     -4.66017777	     -0.26827582	     -7.49999987	    -14.81170437	      7.36022705	      4.55821427	     43.45500248	     -7.68834336	     54.72773297	    127.79080814	     82.37374355	     41.33332041	     -9.42659589	     59.04235654	    136.43554889	     84.83407590
      8.36666670	     -0.59384923	     -5.79086236	    -13.59883736	      1.01839233	      0.99296523	     -0.02703923	     38.94468652	     -2.32294450	     -7.63099505	     21.73921972	      0.37942096	     -7.60073449	      7.55204839	     -7.49999987	      2.31052585	     -0.30116392	      4.25609993	     12.79247060	      0.22327073	     -5.25476625	      0.02973892	     -7.49999987	    -15.41395826	      7.43095670	      4.58933205	     43.39669420	     -7.53187764	     55.17723172	    127.24372919	     82.51745634	     41.25442708	     -9.89744156	     58.87742809	    135.79222338	     85.12755636
      8.38333330	     -0.68158014	     -5.90760006	    -13.64166285	      1.01825040	      0.99211983	     -0.02729335	     38.78825878	     -2.22864207	     -8.14227788	     21.66806095	      0.37817901	     -7.70097589	      7.18405368	     -7.49999987	      1.86367875	     -0.63455201	      3.78178830	     12.11278751	      0.21140802	     -5.34987495	      0.01956048	     -7.49999987	    -15.31846588	      7.58208841	      4.50239391	     43.56258372	     -7.15945253	     55.11261557	    127.18860934	     82.07198474	     41.40464951	    -10.05703905	     58.64590756	    135.41908898	     84.62471460
      8.40000000	     -0.74018947	     -5.86238298	    -13.60405107	      1.01854753	      0.99127711	     -0.02725221	     38.77950165	     -2.35048023	     -8.37761001	     21.86589129	      0.38163180	     -7.93921607	      6.67825930	     -7.49999987	      1.78337915	     -0.75493507	      3.54921510	     11.78840882	      0.20574655	     -4.52455461	     -0.00534037	     -7.49999987	    -15.11314188	      7.53049324	      4.17952299	     43.55025706	     -6.91265007	     55.12479211	    127.17227334	     81.29864341	     41.49942128	    -10.17915627	     58.44420325	    135.26347301	     83.79140663
      8.41666670	     -0.46730333	     -5.99958800	    -13.42114064	      1.01842949	      0.99101452	     -0.02781996	     38.33167837	     -2.40170704	     -8.35026638	     22.25732249	      0.38846356	     -8.10500306	      5.93989137	     -7.49999987	      1.47890134	     -1.00962938	      3.44549773	     11.64565490	      0.20325502	     -2.84728533	     -0.18788021	     -7.49999987	    -15.28277377	      7.61908172	      3.74237186	     43.94828192	     -6.73778038	     55.13125566	    127.29517894	     80.36720353	     41.59969606	    -10.03097325	     58.10826043	    135.08513235	     82.78988178
      8.43333330	     -0.34768442	     -6.26323274	    -13.22436521	      1.01858060	      0.99268150	     -0.02761457	     37.72546483	     -2.29820597	     -8.45719259	     22.34527913	      0.38999869	     -8.08928879	      5.77620239	     -7.49999987	      1.05317175	     -1.36195773	      3.38563062	     11.18992482	      0.19530103	     -1.57938647	     -0.50182595	     -7.49999987	    -15.34036586	      7.92846446	      3.35354540	     44.19445958	     -6.63537217	     55.39303167	    127.07999010	     79.51948451	     41.68685373	     -9.66603151	     58.24764173	    134.99177025	     81.90951581
